<svg width="148" height="282" viewBox="0 0 148 282" fill="none" xmlns="http://www.w3.org/2000/svg">
<g filter="url(#filter0_i_11_13)">
<path d="M57.9149 274.525L52.5777 273.908L77.4835 58.6384L88.6702 59.9317L63.7644 275.202L57.9149 274.525Z" fill="#D9D9D9"/>
<ellipse cx="58.5583" cy="58.5387" rx="58.5583" ry="58.5387" transform="matrix(0.993383 0.114851 -0.114929 0.993374 30.9868 0)" fill="#D9240D"/>
<g filter="url(#filter1_f_11_13)">
<path d="M131.225 54.6523C128.939 74.4159 111.058 88.5845 91.2875 86.2987C71.5172 84.0129 57.3438 66.1384 59.6303 46.3748C61.9169 26.6112 79.7976 12.4426 99.5679 14.7284C119.338 17.0142 133.512 34.8887 131.225 54.6523Z" fill="white" fill-opacity="0.24"/>
</g>
<g filter="url(#filter2_f_11_13)">
<ellipse cx="7.88285" cy="7.88021" rx="7.88285" ry="7.88021" transform="matrix(0.993383 0.114851 -0.114929 0.993374 99.7356 32.8801)" fill="white"/>
</g>
</g>
<defs>
<filter id="filter0_i_11_13" x="23.4657" y="6.33228" width="117.528" height="268.869" filterUnits="userSpaceOnUse" color-interpolation-filters="sRGB">
<feFlood flood-opacity="0" result="BackgroundImageFix"/>
<feBlend mode="normal" in="SourceGraphic" in2="BackgroundImageFix" result="shape"/>
<feColorMatrix in="SourceAlpha" type="matrix" values="0 0 0 0 0 0 0 0 0 0 0 0 0 0 0 0 0 0 127 0" result="hardAlpha"/>
<feOffset dx="-0.4"/>
<feGaussianBlur stdDeviation="0.5"/>
<feComposite in2="hardAlpha" operator="arithmetic" k2="-1" k3="1"/>
<feColorMatrix type="matrix" values="0 0 0 0 0 0 0 0 0 0 0 0 0 0 0 0 0 0 0.25 0"/>
<feBlend mode="normal" in2="shape" result="effect1_innerShadow_11_13"/>
</filter>
<filter id="filter1_f_11_13" x="57.3884" y="12.4866" width="76.0787" height="76.054" filterUnits="userSpaceOnUse" color-interpolation-filters="sRGB">
<feFlood flood-opacity="0" result="BackgroundImageFix"/>
<feBlend mode="normal" in="SourceGraphic" in2="BackgroundImageFix" result="shape"/>
<feGaussianBlur stdDeviation="1" result="effect1_foregroundBlur_11_13"/>
</filter>
<filter id="filter2_f_11_13" x="97.7771" y="32.7327" width="17.7671" height="17.7617" filterUnits="userSpaceOnUse" color-interpolation-filters="sRGB">
<feFlood flood-opacity="0" result="BackgroundImageFix"/>
<feBlend mode="normal" in="SourceGraphic" in2="BackgroundImageFix" result="shape"/>
<feGaussianBlur stdDeviation="0.5" result="effect1_foregroundBlur_11_13"/>
</filter>
</defs>
</svg>
